<svg xmlns="http://www.w3.org/2000/svg" xmlns:xlink="http://www.w3.org/1999/xlink" width="2000" zoomAndPan="magnify" viewBox="0 0 1500 1499.999933" height="2000" preserveAspectRatio="xMidYMid meet" version="1.0"><defs><clipPath id="6fceef577b"><path d="M 131 34.6875 L 1343 34.6875 L 1343 845 L 131 845 Z M 131 34.6875 " clip-rule="nonzero"/></clipPath><clipPath id="fc96b0e89f"><path d="M 157 655 L 1369 655 L 1369 1465.6875 L 157 1465.6875 Z M 157 655 " clip-rule="nonzero"/></clipPath></defs><g clip-path="url(#6fceef577b)"><path fill="#ffffff" d="M 633.429688 842.800781 C 633.429688 842.800781 426.410156 856.125 287.332031 795.410156 C 58.710938 695.589844 38 429.210938 526.671875 389.261719 C 835.011719 364.070312 1257.5 322.386719 1333.847656 34.628906 C 1333.847656 34.628906 1467.527344 400.003906 655.871094 577.894531 C 0.359375 721.566406 633.429688 842.800781 633.429688 842.800781 " fill-opacity="1" fill-rule="nonzero"/></g><g clip-path="url(#fc96b0e89f)"><path fill="#ffffff" d="M 866.570312 657.199219 C 866.570312 657.199219 1073.589844 643.875 1212.667969 704.589844 C 1441.289062 804.410156 1462 1070.789062 973.328125 1110.738281 C 664.988281 1135.929688 242.5 1177.613281 166.152344 1465.371094 C 166.152344 1465.371094 32.472656 1099.996094 844.128906 922.105469 C 1499.640625 778.433594 866.570312 657.199219 866.570312 657.199219 " fill-opacity="1" fill-rule="nonzero"/></g></svg>