<svg xmlns="http://www.w3.org/2000/svg" xmlns:xlink="http://www.w3.org/1999/xlink" width="2000" zoomAndPan="magnify" viewBox="0 0 1500 1499.999933" height="2000" preserveAspectRatio="xMidYMid meet" version="1.0"><defs><clipPath id="8b261e17e1"><path d="M 0 0 L 1500 0 L 1500 1500 L 0 1500 Z M 0 0 " clip-rule="nonzero"/></clipPath><clipPath id="d00c4fd445"><path d="M 750 0 C 335.785156 0 0 335.785156 0 750 C 0 1164.214844 335.785156 1500 750 1500 C 1164.214844 1500 1500 1164.214844 1500 750 C 1500 335.785156 1164.214844 0 750 0 Z M 750 0 " clip-rule="nonzero"/></clipPath><clipPath id="cba3fdf6e4"><path d="M 0 0 L 1500 0 L 1500 1500 L 0 1500 Z M 0 0 " clip-rule="nonzero"/></clipPath><clipPath id="43edb62a4f"><path d="M 750 0 C 335.785156 0 0 335.785156 0 750 C 0 1164.214844 335.785156 1500 750 1500 C 1164.214844 1500 1500 1164.214844 1500 750 C 1500 335.785156 1164.214844 0 750 0 Z M 750 0 " clip-rule="nonzero"/></clipPath><clipPath id="4d5df421a9"><rect x="0" width="1500" y="0" height="1500"/></clipPath><clipPath id="91af31e75f"><path d="M 278 205.011719 L 1202 205.011719 L 1202 822 L 278 822 Z M 278 205.011719 " clip-rule="nonzero"/></clipPath><clipPath id="c34a617b11"><path d="M 298 678 L 1222 678 L 1222 1294.636719 L 298 1294.636719 Z M 298 678 " clip-rule="nonzero"/></clipPath><clipPath id="ec5dd6b92a"><rect x="0" width="1500" y="0" height="1500"/></clipPath></defs><g transform="matrix(1, 0, 0, 1, 0, 0.000000000000112861)"><g clip-path="url(#ec5dd6b92a)"><g clip-path="url(#8b261e17e1)"><g clip-path="url(#d00c4fd445)"><g transform="matrix(1, 0, 0, 1, 0, 0.000000000000112861)"><g clip-path="url(#4d5df421a9)"><g clip-path="url(#cba3fdf6e4)"><g clip-path="url(#43edb62a4f)"><rect x="-546" width="2592" fill="#5a4ae0" y="-545.999976" height="2591.999885" fill-opacity="1"/></g></g></g></g></g></g><g clip-path="url(#91af31e75f)"><path fill="#ffffff" d="M 661.183594 820.699219 C 661.183594 820.699219 503.457031 830.851562 397.496094 784.59375 C 223.3125 708.542969 207.535156 505.59375 579.847656 475.15625 C 814.765625 455.960938 1136.652344 424.207031 1194.820312 204.96875 C 1194.820312 204.96875 1296.667969 483.339844 678.28125 618.871094 C 178.859375 728.335938 661.183594 820.699219 661.183594 820.699219 " fill-opacity="1" fill-rule="nonzero"/></g><g clip-path="url(#c34a617b11)"><path fill="#ffffff" d="M 838.808594 679.292969 C 838.808594 679.292969 996.535156 669.140625 1102.496094 715.398438 C 1276.679688 791.453125 1292.457031 994.402344 920.148438 1024.839844 C 685.226562 1044.03125 363.34375 1075.785156 305.171875 1295.027344 C 305.171875 1295.027344 203.324219 1016.652344 821.710938 881.121094 C 1321.136719 771.660156 838.808594 679.292969 838.808594 679.292969 " fill-opacity="1" fill-rule="nonzero"/></g></g></g></svg>