<?xml version="1.0" encoding="UTF-8" standalone="no"?>
<!DOCTYPE svg PUBLIC "-//W3C//DTD SVG 1.1//EN" "http://www.w3.org/Graphics/SVG/1.1/DTD/svg11.dtd">
<svg width="100%" height="100%" viewBox="0 0 16 16" version="1.1" xmlns="http://www.w3.org/2000/svg" xmlns:xlink="http://www.w3.org/1999/xlink" xml:space="preserve" xmlns:serif="http://www.serif.com/" style="fill-rule:evenodd;clip-rule:evenodd;stroke-linejoin:round;stroke-miterlimit:2;">
    <rect id="Artboard1" x="0" y="0" width="16" height="16" style="fill:none;"/>
    <g id="Artboard11" serif:id="Artboard1">
        <g transform="matrix(0.00192,0,0,0.00192,8,8)">
            <g transform="matrix(1,0,0,1,-4166.67,-4166.67)">
                <clipPath id="_clip1">
                    <rect x="0" y="0" width="8333.33" height="8333.33"/>
                </clipPath>
                <g clip-path="url(#_clip1)">
                    <g transform="matrix(5.55556,0,0,5.55556,0,0.000186111)">
                        <g>
                            <g>
                                <g>
                                    <clipPath id="_clip2">
                                        <path d="M750,0C335.785,0 0,335.785 0,750C0,1164.21 335.785,1500 750,1500C1164.21,1500 1500,1164.21 1500,750C1500,335.785 1164.21,0 750,0Z"/>
                                    </clipPath>
                                    <g clip-path="url(#_clip2)">
                                        <g>
                                            <g>
                                                <g>
                                                    <g>
                                                        <clipPath id="_clip3">
                                                            <path d="M750,0C335.785,0 0,335.785 0,750C0,1164.21 335.785,1500 750,1500C1164.21,1500 1500,1164.21 1500,750C1500,335.785 1164.21,0 750,0Z"/>
                                                        </clipPath>
                                                        <g clip-path="url(#_clip3)">
                                                            <rect x="-546" y="-546" width="2592" height="2592" style="fill:rgb(90,74,224);"/>
                                                        </g>
                                                    </g>
                                                </g>
                                            </g>
                                        </g>
                                    </g>
                                </g>
                            </g>
                            <g>
                                <clipPath id="_clip4">
                                    <rect x="278" y="205.012" width="924" height="616.988"/>
                                </clipPath>
                                <g clip-path="url(#_clip4)">
                                    <path d="M661.184,820.699C661.184,820.699 503.457,830.852 397.496,784.594C223.313,708.543 207.535,505.594 579.848,475.156C814.766,455.961 1136.65,424.207 1194.82,204.969C1194.82,204.969 1296.67,483.34 678.281,618.871C178.859,728.336 661.184,820.699 661.184,820.699" style="fill:white;fill-rule:nonzero;"/>
                                </g>
                            </g>
                            <g>
                                <clipPath id="_clip5">
                                    <rect x="298" y="678" width="924" height="616.637"/>
                                </clipPath>
                                <g clip-path="url(#_clip5)">
                                    <path d="M838.809,679.293C838.809,679.293 996.535,669.141 1102.5,715.398C1276.68,791.453 1292.46,994.402 920.148,1024.84C685.227,1044.03 363.344,1075.79 305.172,1295.03C305.172,1295.03 203.324,1016.65 821.711,881.121C1321.14,771.66 838.809,679.293 838.809,679.293" style="fill:white;fill-rule:nonzero;"/>
                                </g>
                            </g>
                        </g>
                    </g>
                </g>
            </g>
        </g>
    </g>
</svg>
